<?xml version="1.0" standalone="no"?>
<!DOCTYPE svg PUBLIC "-//W3C//DTD SVG 20010904//EN"
 "http://www.w3.org/TR/2001/REC-SVG-20010904/DTD/svg10.dtd">
<svg version="1.0" xmlns="http://www.w3.org/2000/svg"
 width="512.000000pt" height="512.000000pt" viewBox="0 0 512.000000 512.000000"
 preserveAspectRatio="xMidYMid meet">
<g transform="translate(0.000000,512.000000) scale(0.100000,-0.100000)"
fill="#001f3f" stroke="none">
<path d="M2380 4604 c-19 -2 -78 -9 -130 -15 -316 -34 -664 -142 -945 -294
-71 -38 -135 -75 -142 -82 -7 -7 -16 -13 -21 -13 -11 0 -162 -108 -227 -162
-170 -142 -365 -366 -507 -583 -152 -232 -265 -507 -314 -765 -18 -93 -18
-367 0 -460 49 -258 162 -533 314 -765 142 -217 337 -441 507 -583 65 -54
216 -162 227 -162 5 0 14 -6 21 -13 7 -7 71 -44 142 -82 281 -152 629 -260
945 -294 52 -6 111 -13 130 -15 46 -6 374 -6 420 0 19 2 78 9 130 15 316 34
664 142 945 294 71 38 135 75 142 82 7 7 16 13 21 13 11 0 162 108 227 162
170 142 365 366 507 583 152 232 265 507 314 765 18 93 18 367 0 460 -49 258
-162 533 -314 765 -142 217 -337 441 -507 583 -65 54 -216 162 -227 162 -5 0
-14 6 -21 13 -7 7 -71 44 -142 82 -281 152 -629 260 -945 294 -52 6 -111 13
-130 15 -46 6 -374 6 -420 0z m420 -384 c258 -24 517 -89 750 -189 99 -43
250 -119 250 -126 0 -3 -44 -30 -97 -61 -54 -31 -123 -71 -153 -88 -30 -18
-127 -73 -215 -123 -88 -50 -194 -110 -235 -134 -41 -23 -147 -84 -235 -134
-88 -50 -185 -105 -215 -123 -30 -17 -99 -57 -153 -88 l-97 -56 0 561 0 561
68 0 c37 0 108 -11 332 0z m-800 -561 l0 -561 -97 56 c-54 31 -123 71 -153
88 -30 18 -127 73 -215 123 -88 50 -194 110 -235 134 -41 23 -147 84 -235
134 -88 50 -185 105 -215 123 -30 17 -99 57 -153 88 l-97 61 250 126 c233
100 492 165 750 189 46 4 332 -11 400 0z"/>
</g>
</svg>